<svg id="svg" xmlns="http://www.w3.org/2000/svg" xmlns:xlink="http://www.w3.org/1999/xlink" width="400" height="114.81481481481481" viewBox="0, 0, 400,114.81481481481481" version="1.1"><g id="svgg"><path id="path0" d="M130.750 2.277 C 129.042 3.177,129.147 1.697,129.202 24.083 L 129.250 43.583 129.643 44.134 C 130.788 45.740,132.413 45.838,133.585 44.373 L 134.083 43.750 134.188 36.417 C 134.304 28.345,134.283 28.512,135.425 26.339 C 136.119 25.018,138.449 22.500,138.977 22.500 C 139.087 22.500,139.625 22.273,140.175 21.996 C 144.912 19.604,151.383 22.583,153.304 28.039 C 153.728 29.246,153.730 29.276,153.823 36.333 C 153.912 43.089,153.933 43.447,154.264 44.083 C 154.955 45.410,156.493 45.828,157.570 44.981 C 158.578 44.188,158.578 44.185,158.640 37.083 C 158.722 27.631,158.376 25.803,155.882 22.500 C 154.603 20.807,152.102 18.500,151.545 18.500 C 151.465 18.500,151.031 18.267,150.581 17.981 C 147.406 15.968,140.420 15.976,137.369 17.997 C 136.951 18.274,136.516 18.500,136.401 18.500 C 136.286 18.500,135.954 18.701,135.662 18.946 C 134.332 20.065,134.187 19.298,134.176 11.067 C 134.166 3.900,134.121 3.393,133.428 2.785 C 132.559 2.022,131.585 1.837,130.750 2.277 M56.250 4.180 C 54.909 4.292,52.597 5.076,51.297 5.861 C 49.520 6.934,50.086 6.386,25.446 30.864 C 0.658 55.488,2.502 53.501,2.502 55.583 C 2.502 57.142,3.835 59.333,4.784 59.333 C 4.958 59.333,5.171 59.396,5.258 59.472 C 6.420 60.489,8.815 59.757,10.917 57.742 C 11.729 56.964,11.911 56.901,12.792 57.092 L 13.167 57.173 13.171 73.212 C 13.178 96.944,13.140 96.535,15.715 101.013 C 17.545 104.194,21.977 107.857,24.667 108.409 C 24.988 108.475,25.850 108.726,26.583 108.966 L 27.917 109.404 37.333 109.410 C 46.109 109.416,46.790 109.396,47.333 109.114 C 47.654 108.948,48.142 108.696,48.417 108.554 C 49.091 108.206,49.637 107.496,50.104 106.361 L 50.492 105.417 50.510 90.250 C 50.529 73.579,50.596 71.166,51.053 70.708 C 51.477 70.284,63.157 70.105,64.333 70.505 C 65.358 70.854,65.291 69.643,65.314 88.431 C 65.337 108.576,65.194 107.474,67.986 108.942 L 68.889 109.417 77.986 109.414 C 84.437 109.412,87.277 109.355,87.750 109.217 C 88.117 109.109,89.092 108.832,89.917 108.600 C 91.185 108.243,92.844 107.485,94.246 106.620 C 98.669 103.893,102.136 97.807,102.161 92.727 C 102.177 89.438,99.171 87.022,96.386 88.086 C 94.605 88.766,93.835 89.857,93.326 92.417 C 92.487 96.633,90.709 98.887,87.256 100.112 C 86.288 100.455,75.690 100.440,75.022 100.095 C 74.137 99.637,74.170 100.307,74.125 81.917 L 74.083 64.750 73.725 64.083 C 72.267 61.367,71.221 61.225,54.077 61.400 C 43.465 61.508,43.352 61.533,42.129 63.989 L 41.750 64.750 41.709 81.917 C 41.687 91.358,41.630 99.251,41.582 99.455 C 41.383 100.308,41.001 100.353,34.285 100.299 L 28.083 100.250 26.750 99.530 C 25.317 98.756,24.004 97.606,23.482 96.667 C 23.304 96.346,23.014 95.844,22.838 95.552 C 22.662 95.260,22.444 94.735,22.352 94.385 C 22.069 93.303,22.072 47.567,22.355 46.802 C 22.626 46.072,23.027 45.659,32.843 36.000 C 36.989 31.921,40.464 28.499,40.565 28.396 C 41.225 27.725,45.362 23.552,45.502 23.417 C 45.597 23.325,45.853 23.063,46.071 22.833 C 46.290 22.604,46.569 22.332,46.693 22.229 C 46.816 22.125,47.035 21.900,47.180 21.729 C 47.813 20.980,54.599 14.536,55.345 13.976 C 57.030 12.710,59.187 12.893,60.967 14.453 C 64.228 17.313,92.506 45.848,92.912 46.688 L 93.333 47.562 93.338 58.656 C 93.345 72.469,93.380 72.795,94.999 74.046 C 97.387 75.891,99.800 75.423,101.521 72.781 L 102.083 71.917 102.191 64.787 C 102.332 55.489,102.288 55.630,104.397 57.669 C 105.888 59.111,106.026 59.207,107.115 59.556 C 110.612 60.677,113.773 57.585,112.624 54.167 C 112.280 53.144,111.006 51.833,88.401 29.250 C 64.866 5.738,65.813 6.668,64.869 6.143 C 64.528 5.954,64.137 5.702,64.000 5.582 C 63.744 5.359,61.711 4.603,60.667 4.341 C 59.874 4.142,57.669 4.062,56.250 4.180 M202.237 16.649 C 201.448 17.008,200.961 17.570,200.589 18.551 C 200.149 19.711,200.281 42.810,200.733 43.720 C 201.743 45.754,203.530 46.031,204.811 44.351 L 205.250 43.776 205.342 36.430 C 205.442 28.368,205.374 28.942,206.518 26.583 C 208.846 21.787,214.947 19.827,219.706 22.347 C 219.865 22.431,220.096 22.500,220.220 22.500 C 220.760 22.500,223.093 25.075,223.808 26.459 C 224.928 28.630,224.991 29.166,225.014 36.667 C 225.035 43.980,225.009 43.734,225.868 44.638 C 227.000 45.829,228.458 45.628,229.524 44.134 L 229.917 43.583 229.967 36.833 C 230.018 29.898,229.957 28.926,229.338 26.901 C 229.008 25.825,228.071 23.657,227.869 23.506 C 227.803 23.457,227.539 23.107,227.283 22.729 C 226.332 21.327,223.658 18.843,222.720 18.491 C 222.461 18.394,221.980 18.129,221.650 17.902 C 218.932 16.033,211.210 16.031,208.756 17.900 C 208.478 18.112,208.063 18.343,207.833 18.413 C 207.604 18.483,207.333 18.607,207.232 18.688 C 207.130 18.769,206.702 18.939,206.280 19.066 L 205.514 19.297 205.329 18.690 C 205.007 17.636,204.827 17.400,203.936 16.860 C 202.918 16.243,203.086 16.264,202.237 16.649 M247.118 16.924 C 245.798 17.268,244.670 17.674,244.157 17.990 C 243.701 18.271,243.267 18.500,243.191 18.500 C 242.856 18.500,239.500 21.470,239.500 21.767 C 239.500 21.861,239.275 22.153,239.000 22.417 C 238.725 22.680,238.500 22.950,238.500 23.017 C 238.500 23.083,238.208 23.650,237.851 24.277 C 235.333 28.698,235.773 35.256,238.861 39.333 C 239.035 39.563,239.330 39.990,239.517 40.284 C 239.704 40.578,240.006 40.866,240.188 40.924 C 240.370 40.981,240.588 41.211,240.673 41.434 C 240.758 41.657,241.001 41.905,241.212 41.986 C 241.424 42.066,241.703 42.260,241.833 42.416 C 245.025 46.262,255.246 46.482,259.377 42.794 C 260.033 42.208,260.165 42.256,260.440 43.175 C 261.223 45.795,260.050 50.035,257.951 52.167 C 256.523 53.617,256.288 53.763,253.750 54.773 C 250.746 55.968,247.273 55.137,243.750 52.378 C 241.543 50.650,238.425 53.590,240.363 55.572 C 241.835 57.077,242.748 57.815,243.600 58.186 C 244.049 58.381,244.533 58.642,244.675 58.766 C 245.883 59.819,251.210 60.409,253.585 59.752 C 254.409 59.524,255.247 59.337,255.447 59.335 C 256.532 59.329,260.507 56.713,261.750 55.186 C 261.933 54.961,262.278 54.546,262.516 54.264 C 263.133 53.531,264.331 51.492,264.434 51.000 C 264.481 50.771,264.706 50.096,264.933 49.500 C 265.637 47.648,265.665 46.982,265.653 32.667 C 265.640 18.270,265.619 17.824,264.916 17.435 C 264.733 17.333,264.546 17.208,264.500 17.157 C 263.418 15.950,261.115 16.704,260.687 18.406 C 260.357 19.717,259.865 19.909,259.187 18.992 C 258.987 18.721,258.688 18.500,258.524 18.500 C 258.359 18.500,257.882 18.274,257.465 17.997 C 255.138 16.456,250.684 15.994,247.118 16.924 M282.833 16.596 C 282.421 16.728,281.558 16.957,280.917 17.104 C 280.275 17.252,279.336 17.626,278.830 17.936 C 278.324 18.246,277.830 18.500,277.732 18.500 C 277.039 18.500,273.470 22.097,272.551 23.722 C 269.205 29.640,270.477 37.615,275.417 41.684 C 275.508 41.760,275.959 42.143,276.417 42.536 C 280.669 46.178,287.222 46.542,292.917 43.452 C 294.341 42.679,294.468 42.657,294.832 43.119 C 295.016 43.353,295.167 43.600,295.167 43.667 C 295.167 43.733,295.546 44.173,296.009 44.644 C 297.161 45.814,297.896 45.847,299.040 44.782 C 300.070 43.823,300.026 44.260,299.968 35.576 L 299.917 27.917 299.483 26.993 C 299.245 26.485,298.999 25.798,298.937 25.466 C 298.802 24.745,296.898 21.856,295.935 20.911 C 294.894 19.889,293.163 18.500,292.931 18.500 C 292.817 18.500,292.386 18.277,291.974 18.003 C 290.133 16.784,284.808 15.964,282.833 16.596 M317.224 16.899 C 316.109 17.197,314.984 17.584,314.724 17.759 C 313.664 18.468,311.750 19.305,311.557 19.145 C 311.450 19.056,311.214 18.668,311.033 18.283 C 310.247 16.611,308.666 16.105,307.317 17.095 C 306.096 17.992,306.143 17.389,306.200 31.393 L 306.250 43.870 307.148 44.696 C 308.147 45.614,308.860 45.687,309.868 44.973 C 311.118 44.089,311.072 44.389,311.186 36.417 C 311.293 28.895,311.325 28.568,312.120 26.880 C 313.612 23.709,316.367 21.720,319.907 21.255 C 323.358 20.802,324.438 18.929,322.286 17.127 C 321.144 16.171,320.114 16.125,317.224 16.899 M355.417 16.661 C 354.315 17.191,353.526 18.175,352.977 19.705 C 352.821 20.139,352.547 20.702,352.369 20.955 C 352.190 21.209,351.987 21.604,351.919 21.833 C 351.850 22.063,351.503 22.873,351.147 23.635 C 350.791 24.397,350.500 25.058,350.500 25.105 C 350.500 25.183,349.428 27.445,348.574 29.167 C 348.370 29.579,347.601 31.230,346.866 32.835 C 344.959 36.998,344.158 38.500,343.845 38.500 C 343.424 38.500,342.507 37.284,342.085 36.167 C 341.826 35.479,341.486 34.751,341.331 34.550 C 341.175 34.348,340.948 33.823,340.825 33.383 C 340.703 32.943,340.396 32.256,340.144 31.857 C 339.892 31.458,339.636 30.895,339.576 30.607 C 339.516 30.319,339.249 29.739,338.983 29.319 C 338.717 28.898,338.500 28.459,338.500 28.344 C 338.500 28.228,338.200 27.502,337.833 26.730 C 337.467 25.958,337.167 25.282,337.167 25.227 C 337.167 25.172,336.838 24.442,336.436 23.605 C 334.742 20.074,334.333 19.175,334.329 18.968 C 334.308 17.867,332.036 16.300,331.002 16.673 C 328.896 17.435,328.705 18.620,330.182 21.768 C 330.651 22.766,331.294 24.146,331.612 24.833 C 331.930 25.521,332.398 26.496,332.653 27.000 C 332.908 27.504,333.212 28.208,333.329 28.564 C 333.445 28.921,333.719 29.475,333.937 29.796 C 334.155 30.117,334.333 30.456,334.333 30.550 C 334.333 30.643,334.642 31.401,335.018 32.235 C 335.395 33.068,336.039 34.500,336.449 35.417 C 336.859 36.333,337.489 37.686,337.847 38.423 C 338.206 39.160,338.500 39.881,338.500 40.026 C 338.500 40.170,338.653 40.483,338.840 40.720 C 339.027 40.958,339.322 41.565,339.495 42.068 C 339.668 42.572,340.011 43.327,340.256 43.746 C 340.864 44.782,340.809 46.555,340.137 47.583 C 339.897 47.950,339.609 48.550,339.497 48.917 C 339.384 49.283,339.131 49.808,338.934 50.083 C 338.738 50.358,338.471 50.791,338.342 51.045 C 338.113 51.494,336.698 52.875,335.704 53.620 C 334.787 54.306,331.705 55.321,330.500 55.334 C 328.864 55.352,327.712 56.634,328.035 58.075 C 328.445 59.896,330.256 60.505,333.061 59.764 C 333.898 59.543,334.846 59.318,335.167 59.264 C 335.487 59.210,336.012 59.001,336.333 58.800 C 336.654 58.598,337.273 58.265,337.708 58.058 C 338.144 57.851,338.500 57.616,338.500 57.534 C 338.500 57.453,338.669 57.309,338.875 57.213 C 339.582 56.886,341.423 55.041,342.271 53.810 C 343.232 52.412,344.356 50.127,347.501 43.167 C 347.895 42.296,348.586 40.796,349.037 39.833 C 350.059 37.653,350.451 36.811,351.329 34.917 C 352.521 32.343,353.176 30.953,353.685 29.917 C 353.955 29.367,354.174 28.842,354.171 28.750 C 354.169 28.658,354.460 27.983,354.817 27.250 C 355.175 26.517,355.779 25.204,356.159 24.333 C 356.538 23.462,357.102 22.225,357.410 21.583 C 358.733 18.834,358.621 17.757,356.904 16.751 C 356.061 16.257,356.235 16.268,355.417 16.661 M166.417 16.777 C 164.659 17.703,164.633 17.843,164.712 25.866 L 164.777 32.583 165.290 34.468 C 166.210 37.852,167.632 40.011,170.555 42.458 C 173.680 45.076,178.849 46.228,182.834 45.197 C 184.628 44.732,185.328 44.445,187.468 43.293 C 188.515 42.729,188.923 42.837,189.633 43.865 C 191.275 46.247,193.402 45.889,194.285 43.083 C 194.641 41.952,194.588 19.658,194.227 18.571 C 193.541 16.507,191.596 15.939,190.192 17.392 C 189.430 18.180,189.362 18.845,189.343 25.667 C 189.323 32.676,189.254 33.324,188.314 35.250 C 184.440 43.192,173.071 42.248,170.247 33.750 L 169.804 32.417 169.691 25.250 C 169.565 17.233,169.633 17.640,168.317 16.924 C 167.420 16.436,167.110 16.412,166.417 16.777 M252.421 21.344 C 253.124 21.442,253.973 21.663,254.308 21.836 C 254.643 22.008,255.262 22.296,255.683 22.475 C 259.549 24.115,261.898 31.057,259.836 34.750 C 259.580 35.208,259.314 35.771,259.245 36.000 C 259.080 36.544,257.968 37.801,256.910 38.640 C 253.076 41.680,246.942 41.226,243.743 37.667 C 240.532 34.094,240.119 29.472,242.666 25.639 C 243.442 24.472,245.484 22.500,245.917 22.500 C 246.025 22.500,246.567 22.273,247.121 21.996 C 248.614 21.251,250.276 21.046,252.421 21.344 M286.929 21.346 C 287.637 21.444,288.374 21.626,288.566 21.750 C 288.759 21.874,289.254 22.109,289.667 22.272 C 290.859 22.742,293.667 25.278,293.667 25.885 C 293.667 25.970,293.948 26.500,294.292 27.062 L 294.917 28.083 294.917 31.004 L 294.917 33.926 294.292 34.975 C 293.948 35.552,293.667 36.107,293.667 36.208 C 293.667 36.310,293.423 36.632,293.125 36.925 C 292.827 37.217,292.499 37.560,292.396 37.687 C 291.794 38.425,290.611 39.229,289.196 39.862 L 287.583 40.583 285.333 40.582 C 282.639 40.581,280.844 39.989,279.122 38.533 C 271.481 32.072,276.982 19.962,286.929 21.346 M219.472 68.346 C 217.977 69.324,218.090 67.713,218.035 88.833 C 217.976 111.084,217.927 110.367,219.592 111.323 L 220.417 111.796 221.167 111.416 C 222.942 110.517,222.834 111.926,222.829 89.801 C 222.825 68.042,222.908 69.168,221.234 68.211 C 220.408 67.738,220.400 67.739,219.472 68.346 M293.621 71.160 C 293.276 71.227,292.805 71.458,292.575 71.674 C 291.621 72.571,291.667 71.715,291.667 88.642 L 291.667 104.233 292.203 105.658 C 294.139 110.808,299.681 113.096,304.417 110.701 C 305.006 110.403,306.168 109.523,306.441 109.167 C 306.546 109.029,306.790 108.736,306.983 108.516 C 307.676 107.724,307.483 106.665,306.482 105.765 C 305.381 104.776,304.979 104.773,303.183 105.741 C 300.485 107.196,298.682 107.030,297.501 105.220 C 297.273 104.870,297.044 104.546,296.993 104.500 C 296.462 104.023,296.214 88.640,296.727 87.965 C 297.116 87.453,297.817 87.333,300.436 87.333 C 303.308 87.333,303.594 87.257,304.475 86.253 C 305.449 85.143,305.059 83.549,303.632 82.810 C 302.999 82.482,302.576 82.428,299.969 82.341 C 298.348 82.288,296.990 82.208,296.952 82.164 C 296.612 81.771,296.499 80.544,296.493 77.183 C 296.484 72.658,296.338 71.979,295.250 71.388 C 294.512 70.988,294.510 70.988,293.621 71.160 M348.134 71.532 C 346.750 72.334,346.815 71.435,346.869 88.878 L 346.917 104.250 347.533 105.724 C 350.188 112.069,358.704 113.784,362.237 108.685 C 363.850 106.358,361.221 104.165,358.645 105.688 C 355.993 107.256,354.306 107.076,352.822 105.068 C 351.921 103.848,351.895 103.527,352.000 94.836 L 352.083 87.921 352.583 87.669 C 352.944 87.488,353.897 87.389,356.000 87.317 C 357.604 87.261,358.929 87.205,358.944 87.191 C 360.364 85.914,360.338 85.954,360.357 84.985 C 360.398 82.942,359.587 82.475,355.766 82.341 C 351.698 82.198,352.032 82.673,351.955 76.917 C 351.897 72.611,351.797 72.147,350.791 71.525 C 350.033 71.057,348.949 71.059,348.134 71.532 M142.917 82.450 C 140.315 82.686,137.981 83.460,136.177 84.683 C 135.060 85.441,134.815 85.367,133.798 83.970 C 132.544 82.248,130.906 82.155,129.746 83.739 L 129.250 84.417 129.204 96.830 C 129.151 111.149,129.061 110.352,130.833 111.249 C 131.664 111.670,132.426 111.519,133.362 110.750 C 134.049 110.186,134.071 109.959,134.179 102.500 C 134.250 97.612,134.350 95.033,134.485 94.583 C 135.612 90.841,138.821 87.980,142.436 87.495 C 145.610 87.068,146.772 85.784,145.820 83.758 C 145.518 83.116,143.935 82.111,143.619 82.361 C 143.599 82.377,143.283 82.417,142.917 82.450 M161.167 82.571 C 158.769 82.942,157.332 83.460,155.720 84.535 C 155.337 84.791,154.952 85.000,154.864 85.000 C 154.563 85.000,151.573 88.085,150.939 89.051 C 147.292 94.602,147.814 101.793,152.212 106.593 C 153.189 107.659,155.343 109.500,155.613 109.500 C 155.685 109.500,156.157 109.755,156.663 110.066 C 160.611 112.495,168.541 111.882,171.676 108.904 C 171.910 108.682,172.172 108.500,172.259 108.500 C 173.229 108.500,174.405 105.892,173.938 104.775 C 173.108 102.789,171.616 102.935,168.390 105.318 C 165.484 107.463,160.150 107.135,157.179 104.628 C 155.001 102.791,154.016 100.991,154.620 99.956 L 154.935 99.417 165.509 99.333 C 176.878 99.244,176.597 99.266,177.350 98.392 C 178.294 97.296,178.028 93.946,176.786 91.296 C 173.905 85.147,167.534 81.588,161.167 82.571 M195.667 82.504 C 191.496 83.036,188.578 84.576,185.970 87.622 C 185.517 88.151,185.015 88.733,184.853 88.917 C 181.775 92.410,181.854 102.413,184.981 105.234 C 185.175 105.409,185.333 105.636,185.333 105.738 C 185.333 105.974,187.863 108.500,188.100 108.500 C 188.196 108.500,188.448 108.683,188.658 108.908 C 191.250 111.666,198.946 112.447,203.083 110.370 C 203.542 110.141,204.142 109.840,204.417 109.703 C 204.692 109.566,205.038 109.304,205.185 109.120 C 205.683 108.501,206.699 109.051,207.366 110.300 C 208.339 112.120,211.157 111.648,211.637 109.584 C 211.884 108.524,211.905 97.680,211.666 95.155 C 211.361 91.935,209.986 89.283,207.199 86.542 C 206.337 85.694,205.536 85.000,205.420 85.000 C 205.303 85.000,205.118 84.892,205.008 84.760 C 203.909 83.435,198.538 82.138,195.667 82.504 M241.083 82.508 C 237.119 83.079,234.640 84.329,231.986 87.094 C 226.008 93.320,226.759 103.315,233.589 108.423 C 233.953 108.694,234.376 109.029,234.530 109.167 C 235.895 110.387,240.121 111.691,242.667 111.679 C 247.154 111.656,253.163 108.565,253.575 106.067 C 253.815 104.608,252.356 103.135,250.950 103.418 C 250.502 103.508,248.098 104.990,247.833 105.340 C 247.682 105.540,245.559 106.323,244.478 106.578 C 240.458 107.526,235.429 105.042,234.097 101.452 C 233.319 99.356,232.927 99.431,245.196 99.333 C 255.420 99.252,255.652 99.243,256.103 98.906 C 258.859 96.848,256.671 89.765,252.060 85.818 C 249.255 83.418,244.571 82.005,241.083 82.508 M269.500 82.499 C 266.380 82.915,264.041 84.605,262.621 87.470 L 261.917 88.892 261.924 90.988 C 261.934 93.968,262.887 95.827,265.377 97.728 C 267.168 99.095,267.623 99.192,272.833 99.315 C 277.777 99.431,278.356 99.564,279.635 100.884 C 280.840 102.127,280.527 104.746,279.041 105.858 C 277.834 106.761,278.022 106.739,270.667 106.830 C 263.770 106.916,263.748 106.918,263.121 107.308 C 261.541 108.290,261.574 110.145,263.190 111.182 L 264.076 111.750 270.996 111.750 L 277.917 111.750 279.197 111.302 C 281.657 110.441,283.299 108.998,284.541 106.606 L 285.245 105.250 285.247 103.083 L 285.249 100.917 284.640 99.750 C 283.962 98.451,282.387 96.541,281.698 96.184 C 281.452 96.056,281.212 95.906,281.167 95.851 C 280.490 95.032,279.188 94.810,274.250 94.673 C 269.606 94.544,269.266 94.482,268.040 93.557 C 266.533 92.420,266.409 89.973,267.790 88.627 C 268.984 87.464,269.162 87.431,274.833 87.336 C 279.137 87.263,279.993 87.208,280.417 86.975 C 282.146 86.022,282.080 83.635,280.300 82.733 C 279.475 82.315,272.083 82.155,269.500 82.499 M324.514 82.507 C 318.338 83.349,313.903 87.063,311.983 93.000 C 310.912 96.312,311.392 101.144,313.055 103.792 C 313.271 104.136,313.478 104.500,313.515 104.602 C 313.807 105.398,317.889 109.500,318.389 109.500 C 318.440 109.500,318.927 109.761,319.470 110.079 C 322.077 111.607,326.117 112.050,329.517 111.181 C 331.564 110.658,331.770 110.579,333.181 109.778 C 335.293 108.579,335.170 108.629,335.456 108.865 C 335.602 108.985,335.858 109.392,336.025 109.770 C 336.756 111.418,338.386 112.094,339.426 111.181 C 339.731 110.913,340.116 110.618,340.282 110.526 C 340.567 110.366,340.583 109.890,340.583 101.970 L 340.583 93.583 340.192 92.849 C 339.976 92.445,339.693 91.754,339.562 91.315 C 339.432 90.875,339.218 90.409,339.088 90.278 C 338.958 90.148,338.689 89.751,338.492 89.396 C 335.950 84.820,329.795 81.787,324.514 82.507 M380.715 82.516 C 375.615 83.110,370.861 86.552,368.923 91.052 C 368.797 91.344,368.547 91.921,368.368 92.333 C 367.336 94.708,367.389 99.223,368.481 102.000 C 369.470 104.515,372.021 107.869,373.542 108.653 C 373.794 108.783,374.000 108.945,374.000 109.013 C 374.000 109.850,379.647 111.667,382.250 111.667 C 384.841 111.667,389.155 110.352,390.469 109.162 C 390.624 109.022,391.012 108.729,391.333 108.511 C 393.070 107.330,393.665 105.872,392.924 104.613 C 391.901 102.876,390.772 102.945,387.929 104.920 C 385.777 106.415,382.853 107.136,380.815 106.674 C 378.779 106.214,377.321 105.621,376.595 104.958 C 376.319 104.706,376.048 104.500,375.994 104.500 C 375.703 104.500,374.047 102.192,373.726 101.338 L 373.355 100.349 373.933 99.841 L 374.512 99.333 384.549 99.333 C 396.288 99.333,395.984 99.376,396.849 97.594 C 397.415 96.425,396.762 93.112,395.455 90.518 C 392.755 85.162,386.615 81.829,380.715 82.516 M166.000 87.765 C 168.133 88.399,170.870 90.492,171.659 92.091 C 171.793 92.362,172.007 92.710,172.134 92.865 C 172.507 93.316,172.119 94.259,171.467 94.487 C 170.518 94.817,155.012 94.729,154.638 94.391 C 154.143 93.943,154.248 93.038,154.917 91.994 C 155.482 91.112,157.440 89.000,157.693 89.000 C 157.762 89.000,158.196 88.777,158.658 88.505 C 160.593 87.364,163.627 87.058,166.000 87.765 M200.027 87.756 C 201.979 88.435,205.167 90.797,205.167 91.563 C 205.167 91.676,205.357 92.026,205.589 92.341 C 207.154 94.462,207.066 99.467,205.419 102.086 C 202.580 106.600,197.479 107.995,192.500 105.620 C 191.129 104.965,189.087 102.842,188.299 101.250 C 184.633 93.848,192.273 85.058,200.027 87.756 M245.503 87.792 C 249.182 89.004,252.718 93.014,251.331 94.402 C 251.110 94.624,235.598 94.753,234.583 94.541 C 233.158 94.245,233.732 92.270,235.855 90.168 C 237.385 88.654,238.968 87.863,241.333 87.433 C 242.149 87.284,244.603 87.496,245.503 87.792 M328.833 87.765 C 331.179 88.463,333.691 90.386,334.581 92.166 C 334.788 92.579,335.079 93.149,335.228 93.433 C 337.502 97.761,334.435 104.381,329.333 106.156 C 320.764 109.139,312.908 99.651,317.626 92.017 C 319.847 88.423,324.770 86.555,328.833 87.765 M384.000 87.510 C 387.904 88.136,392.485 92.670,390.894 94.333 C 390.589 94.653,375.174 94.811,374.132 94.505 C 372.838 94.126,373.256 92.627,375.290 90.355 C 377.329 88.078,380.693 86.979,384.000 87.510 " stroke="none" fill="#d23e50" fill-rule="evenodd"></path></g></svg>