<svg id="svg" version="1.1" xmlns="http://www.w3.org/2000/svg" xmlns:xlink="http://www.w3.org/1999/xlink" width="400" height="375.51020408163265" viewBox="0, 0, 400,375.51020408163265"><g id="svgg"><path id="path0" d="M196.244 16.005 C 194.809 16.134,192.622 16.541,186.216 17.871 C 184.625 18.201,182.957 18.789,182.509 19.177 C 182.061 19.566,181.377 19.985,180.988 20.108 C 180.600 20.231,180.282 20.463,180.282 20.622 C 180.282 20.782,179.590 21.141,178.746 21.420 C 177.901 21.698,176.676 22.451,176.023 23.093 C 175.370 23.734,174.244 24.673,173.521 25.179 C 172.123 26.158,167.974 30.013,162.521 35.399 C 160.692 37.207,159.146 38.685,159.087 38.685 C 159.028 38.685,156.268 41.347,152.954 44.601 C 146.776 50.667,128.137 68.886,122.799 74.078 C 121.156 75.675,119.812 77.081,119.812 77.203 C 119.812 77.496,118.803 78.498,118.509 78.498 C 118.204 78.498,117.282 79.262,116.499 80.163 C 115.762 81.013,109.680 87.045,108.671 87.927 C 108.292 88.259,107.643 89.001,107.231 89.577 C 106.818 90.154,105.846 91.025,105.071 91.514 C 104.296 92.004,103.662 92.590,103.662 92.818 C 103.662 93.376,101.012 95.775,100.396 95.775 C 100.127 95.775,99.906 96.014,99.906 96.306 C 99.906 97.005,97.581 99.383,96.590 99.698 C 96.163 99.834,95.707 100.279,95.577 100.689 C 95.287 101.603,93.780 103.148,92.876 103.458 C 92.508 103.584,91.645 104.451,90.959 105.385 C 90.272 106.319,89.343 107.256,88.893 107.467 C 88.443 107.678,87.606 108.522,87.033 109.343 C 86.460 110.163,85.414 111.175,84.709 111.591 C 84.004 112.007,83.090 112.918,82.679 113.615 C 82.267 114.312,81.442 115.136,80.844 115.445 C 80.246 115.754,79.305 116.690,78.753 117.524 C 78.201 118.358,77.272 119.287,76.687 119.589 C 76.103 119.891,75.179 120.812,74.635 121.636 C 74.090 122.459,73.342 123.229,72.972 123.347 C 72.603 123.464,71.793 124.184,71.174 124.946 C 70.554 125.708,69.774 126.577,69.440 126.878 C 68.058 128.121,66.244 129.979,65.540 130.871 C 65.127 131.395,64.656 131.825,64.495 131.827 C 64.148 131.832,57.841 138.197,57.840 138.543 C 57.839 138.673,57.079 139.260,56.150 139.847 C 55.220 140.434,54.460 141.114,54.460 141.358 C 54.460 141.601,53.759 142.389,52.903 143.107 C 50.806 144.865,50.270 145.397,49.404 146.577 C 48.998 147.129,48.218 147.766,47.670 147.993 C 47.122 148.221,46.442 148.860,46.159 149.414 C 45.518 150.671,44.191 151.984,43.265 152.278 C 42.878 152.400,42.328 152.937,42.043 153.470 C 41.547 154.397,40.476 155.413,38.738 156.609 C 38.296 156.913,37.934 157.344,37.934 157.568 C 37.934 158.025,35.617 160.376,35.167 160.376 C 34.755 160.376,33.992 161.200,33.708 161.950 C 33.576 162.300,32.639 163.230,31.626 164.016 C 30.613 164.803,29.415 166.003,28.962 166.684 C 28.509 167.365,27.850 168.032,27.497 168.166 C 26.738 168.453,26.443 168.748,25.065 170.592 C 24.494 171.357,23.522 172.281,22.905 172.645 C 22.289 173.009,21.784 173.529,21.784 173.800 C 21.784 174.071,20.990 175.086,20.020 176.056 C 17.755 178.321,17.273 180.932,18.229 185.753 C 18.314 186.180,18.773 186.737,19.248 186.992 C 19.724 187.246,20.589 188.206,21.170 189.125 C 23.841 193.347,31.878 195.113,36.009 192.386 C 36.551 192.027,37.638 191.407,38.424 191.008 C 39.210 190.609,40.117 189.834,40.441 189.287 C 40.764 188.739,41.695 187.883,42.509 187.385 C 43.322 186.887,44.331 185.927,44.751 185.253 C 46.120 183.053,50.559 181.975,52.019 183.488 C 54.009 185.551,53.868 181.353,54.154 247.136 C 54.440 312.954,54.327 309.730,56.571 316.511 C 57.269 318.620,57.844 320.563,57.849 320.830 C 57.868 321.954,63.658 332.699,64.676 333.499 C 65.171 333.889,65.965 334.963,66.440 335.886 C 66.914 336.809,67.715 337.785,68.218 338.055 C 68.722 338.324,69.481 339.107,69.906 339.794 C 70.331 340.481,71.466 341.581,72.428 342.237 C 73.391 342.894,74.601 343.891,75.117 344.452 C 75.634 345.013,76.732 345.831,77.559 346.270 C 78.385 346.710,79.737 347.560,80.563 348.160 C 81.390 348.761,82.826 349.528,83.756 349.865 C 85.732 350.583,88.053 351.771,89.413 352.763 C 89.943 353.149,91.464 353.633,92.793 353.840 C 94.123 354.046,96.225 354.381,97.465 354.583 C 107.180 356.169,157.535 356.372,163.756 354.851 C 167.717 353.882,170.548 351.214,171.364 347.684 C 172.132 344.360,172.318 332.519,172.356 284.619 C 172.401 226.576,172.111 230.137,176.928 228.451 C 178.764 227.808,220.250 227.773,222.384 228.412 C 226.329 229.594,226.103 225.869,226.103 289.844 C 226.103 349.905,226.002 347.095,228.250 349.575 C 228.953 350.351,229.777 351.452,230.081 352.022 C 230.652 353.094,232.697 354.219,235.305 354.895 C 237.884 355.565,279.530 356.073,289.577 355.558 C 299.109 355.070,306.356 353.838,308.545 352.335 C 309.371 351.767,311.434 350.751,313.129 350.076 C 314.824 349.401,316.416 348.602,316.667 348.300 C 316.918 347.997,317.897 347.310,318.843 346.773 C 319.789 346.235,321.155 345.263,321.878 344.612 C 322.601 343.961,323.869 342.936,324.695 342.334 C 327.697 340.148,333.373 333.984,334.151 332.066 C 334.454 331.317,335.209 330.249,335.828 329.694 C 336.496 329.093,337.311 327.692,337.838 326.241 C 338.988 323.071,339.918 321.127,340.284 321.127 C 340.921 321.127,341.261 319.687,342.529 311.609 C 344.666 298.001,342.331 291.870,334.420 290.322 C 330.046 289.466,323.380 290.921,323.380 292.731 C 323.380 293.010,322.653 293.944,321.764 294.805 C 319.815 296.694,319.677 297.235,318.323 308.245 C 318.072 310.284,314.640 316.884,312.300 319.827 C 310.316 322.323,306.302 325.996,304.564 326.906 C 304.068 327.166,303.324 327.560,302.911 327.783 C 295.870 331.571,296.749 331.455,275.080 331.455 C 253.670 331.455,253.821 331.479,252.144 327.887 C 250.911 325.248,250.892 324.361,250.892 269.315 C 250.892 239.021,250.748 214.074,250.572 213.878 C 250.396 213.682,250.039 212.730,249.779 211.763 C 249.519 210.797,248.987 209.663,248.597 209.244 C 248.207 208.825,247.887 208.338,247.887 208.161 C 247.887 207.060,244.491 205.058,241.297 204.278 C 237.819 203.428,160.022 203.603,157.183 204.468 C 155.944 204.845,154.368 205.321,153.683 205.525 C 152.997 205.730,152.339 206.176,152.221 206.517 C 152.102 206.857,151.205 207.898,150.226 208.829 C 147.775 211.161,147.939 207.209,147.663 270.798 C 147.387 334.421,147.637 329.477,144.630 330.844 C 142.788 331.682,105.021 331.773,101.972 330.947 C 99.774 330.351,92.019 326.734,92.019 326.304 C 92.019 326.142,91.779 326.009,91.487 326.009 C 91.194 326.009,90.898 325.860,90.829 325.678 C 90.761 325.496,89.389 323.958,87.782 322.259 C 86.175 320.561,84.611 318.574,84.306 317.844 C 84.000 317.113,83.415 316.224,83.005 315.869 C 82.025 315.019,81.238 313.080,80.522 309.751 C 79.559 305.279,78.742 159.228,79.657 155.217 C 80.738 150.480,79.950 151.486,92.488 138.830 C 96.981 134.294,100.657 130.547,100.657 130.503 C 100.657 130.140,129.001 102.527,136.512 95.574 C 136.965 95.154,137.492 94.549,137.682 94.230 C 137.873 93.911,138.660 93.226,139.432 92.708 C 140.205 92.191,141.347 91.063,141.970 90.203 C 142.593 89.342,143.340 88.638,143.629 88.638 C 143.919 88.638,144.832 87.830,145.660 86.842 C 146.487 85.853,147.573 84.826,148.073 84.559 C 148.572 84.291,149.279 83.569,149.642 82.952 C 150.006 82.336,151.007 81.327,151.866 80.710 C 152.725 80.093,153.850 78.977,154.366 78.230 C 154.883 77.483,155.819 76.610,156.447 76.291 C 157.075 75.972,157.849 75.197,158.168 74.569 C 158.486 73.941,159.451 72.951,160.312 72.370 C 161.173 71.788,161.878 71.103,161.878 70.847 C 161.878 70.292,164.188 67.981,164.743 67.981 C 164.956 67.981,165.670 67.231,166.328 66.314 C 166.986 65.397,167.850 64.544,168.248 64.418 C 168.645 64.292,169.559 63.369,170.279 62.367 C 170.999 61.364,172.068 60.261,172.654 59.915 C 173.241 59.568,174.107 58.696,174.579 57.975 C 175.051 57.255,176.020 56.322,176.733 55.901 C 177.445 55.481,178.028 54.992,178.028 54.816 C 178.028 54.424,179.319 53.139,181.163 51.696 C 181.918 51.105,182.535 50.454,182.535 50.250 C 182.535 49.729,184.677 47.786,185.559 47.506 C 185.962 47.378,186.291 47.123,186.291 46.940 C 186.291 46.430,187.932 44.902,189.542 43.912 C 190.336 43.424,191.372 42.642,191.844 42.174 C 192.316 41.705,193.161 41.222,193.722 41.100 C 194.283 40.977,195.232 40.722,195.831 40.532 C 198.458 39.701,204.671 40.439,206.690 41.822 C 208.111 42.795,213.914 47.968,215.533 49.704 C 216.079 50.290,217.085 51.304,217.769 51.957 C 218.453 52.611,221.868 55.934,225.358 59.343 C 228.848 62.751,231.879 65.709,232.093 65.915 C 232.308 66.122,233.065 66.883,233.777 67.606 C 234.489 68.329,235.589 69.313,236.221 69.794 C 236.854 70.274,237.371 70.900,237.371 71.183 C 237.371 71.467,238.001 72.172,238.772 72.751 C 241.029 74.446,241.502 74.886,241.506 75.295 C 241.508 75.507,242.053 76.103,242.717 76.620 C 243.381 77.136,244.799 78.404,245.867 79.437 C 246.935 80.469,248.166 81.653,248.601 82.066 C 249.630 83.042,255.687 89.120,256.901 90.394 C 257.900 91.441,258.383 91.916,263.099 96.472 C 264.751 98.069,266.439 99.833,266.850 100.392 C 267.260 100.951,267.802 101.408,268.054 101.408 C 268.306 101.408,268.985 102.020,269.561 102.768 C 270.138 103.516,271.006 104.487,271.490 104.928 C 271.974 105.368,272.819 106.215,273.368 106.810 C 273.917 107.405,274.853 108.334,275.448 108.875 C 276.043 109.416,276.973 110.346,277.514 110.941 C 278.055 111.536,278.974 112.466,279.557 113.007 C 282.791 116.010,287.324 120.651,287.324 120.959 C 287.324 121.154,287.535 121.321,287.793 121.328 C 288.503 121.348,290.129 122.854,290.907 124.209 C 291.287 124.872,292.041 125.598,292.582 125.822 C 293.123 126.046,293.810 126.588,294.107 127.027 C 294.404 127.466,295.137 128.262,295.734 128.795 C 296.332 129.329,297.346 130.333,297.988 131.027 C 298.630 131.721,299.493 132.605,299.906 132.991 C 301.227 134.227,303.261 136.248,304.095 137.151 C 304.539 137.634,305.219 138.282,305.604 138.592 C 305.990 138.901,306.776 139.789,307.350 140.563 C 307.925 141.338,308.608 141.972,308.869 141.972 C 309.430 141.972,311.155 143.763,311.477 144.680 C 311.601 145.033,312.279 145.700,312.984 146.162 C 313.689 146.624,314.642 147.553,315.103 148.225 C 315.564 148.898,316.438 149.968,317.045 150.603 C 319.148 152.804,319.047 150.805,319.249 194.178 L 319.437 234.554 320.563 236.892 C 321.183 238.178,321.834 239.235,322.009 239.240 C 322.184 239.245,322.801 239.756,323.380 240.376 C 323.959 240.995,324.546 241.502,324.684 241.502 C 324.822 241.502,325.672 242.009,326.573 242.629 C 329.543 244.672,334.093 244.233,337.640 241.559 C 338.563 240.864,339.712 240.145,340.194 239.962 C 340.702 239.769,341.298 239.038,341.616 238.218 C 341.917 237.442,342.431 236.301,342.760 235.683 C 343.484 234.318,343.604 230.771,343.815 204.507 C 343.919 191.542,344.101 185.361,344.402 184.543 C 345.518 181.506,351.471 181.961,352.487 185.159 C 352.598 185.509,353.150 186.031,353.715 186.320 C 354.280 186.609,355.507 187.650,356.442 188.634 C 357.377 189.618,358.276 190.423,358.439 190.423 C 358.602 190.423,359.274 190.825,359.931 191.316 C 360.589 191.808,361.803 192.434,362.629 192.707 C 363.455 192.981,364.292 193.340,364.488 193.504 C 366.225 194.959,375.587 191.613,375.587 189.537 C 375.587 189.330,376.512 188.153,377.661 186.898 C 379.097 185.331,378.933 178.358,377.419 176.590 C 377.101 176.218,376.117 174.935,375.234 173.739 C 374.350 172.543,370.519 168.443,366.720 164.629 C 362.921 160.814,359.812 157.628,359.812 157.549 C 359.812 157.469,359.036 156.678,358.086 155.791 C 357.137 154.904,355.743 153.514,354.988 152.701 C 353.794 151.417,345.828 143.453,340.969 138.686 C 340.075 137.809,339.174 136.913,338.967 136.694 C 338.761 136.476,337.070 134.854,335.211 133.089 C 333.352 131.324,329.621 127.742,326.920 125.128 C 324.219 122.514,321.345 119.748,320.535 118.981 C 319.724 118.214,318.285 116.778,317.336 115.789 C 316.387 114.800,315.288 113.720,314.894 113.390 C 314.501 113.059,312.782 111.369,311.076 109.634 C 306.864 105.349,306.726 105.211,303.148 101.687 C 301.419 99.985,299.560 98.110,299.016 97.521 C 298.473 96.932,297.352 95.793,296.526 94.990 C 295.700 94.186,294.897 93.400,294.741 93.243 C 294.439 92.938,286.024 84.150,285.544 83.639 C 285.387 83.472,284.635 82.711,283.874 81.949 C 283.112 81.187,280.886 78.958,278.927 76.995 C 275.635 73.698,269.278 67.630,266.385 65.024 C 265.714 64.419,265.159 63.781,265.153 63.605 C 265.147 63.430,264.619 62.864,263.980 62.347 C 262.602 61.234,257.770 56.580,246.719 45.722 C 242.255 41.335,238.283 37.467,237.893 37.125 C 237.502 36.783,236.507 35.727,235.681 34.778 C 234.854 33.830,234.007 33.053,233.798 33.053 C 233.589 33.052,233.082 32.593,232.671 32.032 C 231.441 30.352,227.154 26.320,225.447 25.237 C 224.569 24.681,223.851 24.092,223.850 23.928 C 223.849 23.344,222.508 22.297,220.845 21.582 C 219.915 21.182,218.986 20.723,218.779 20.561 C 217.113 19.260,214.869 18.041,214.128 18.035 C 213.636 18.031,212.622 17.869,211.875 17.675 C 207.082 16.430,199.961 15.669,196.244 16.005 " stroke="none" fill="#cd2a3d" fill-rule="evenodd"></path></g></svg>